<svg xmlns="http://www.w3.org/2000/svg" xmlns:xlink="http://www.w3.org/1999/xlink" viewBox="0 0 137.43 24.39"><defs><style>.cls-1{fill:#d5a14b;}.cls-1,.cls-2,.cls-3,.cls-5{fill-rule:evenodd;}.cls-2{fill:url(#GradientFill_1);}.cls-3,.cls-4{fill:#1a1a18;}.cls-5{fill:#1c1c1d;}</style><linearGradient id="GradientFill_1" x1="8.18" y1="12.43" x2="19.02" y2="11.35" gradientUnits="userSpaceOnUse"><stop offset="0" stop-color="#1a1a18"/><stop offset="0.56" stop-color="#69532f"/><stop offset="1" stop-color="#d5a14b"/></linearGradient></defs><g id="Layer_2" data-name="Layer 2"><g id="Layer_1-2" data-name="Layer 1"><path class="cls-1" d="M14.37,0h4.14a1.74,1.74,0,0,1,1.68,1.78V20.87a1.41,1.41,0,0,1-1.36,1.45H14.37Z"/><polygon class="cls-2" points="7.7 1.39 20.19 14.75 20.19 22.32 14.33 22.32 7.68 15.74 7.7 1.39"/><polygon class="cls-3" points="1.61 0 3.14 0 3.14 19.53 1.61 19.53 1.61 1.39 0.49 1.12 0.49 0 1.61 0"/><polygon class="cls-3" points="7.7 0 6.17 0 6.17 19.53 7.7 19.53 7.7 1.39 8.82 1.12 8.82 0 7.7 0"/><rect class="cls-4" x="3.89" width="1.53" height="20.28"/><rect class="cls-4" x="0.08" y="20.06" width="9.15" height="1.53"/><rect class="cls-4" y="22.32" width="20.19" height="1.53"/><path class="cls-5" d="M34.61,1.37v8h0L28,1.37H26.23V12.84h2v-8h0l6.63,8h1.73V1.37Zm14.24,0v8h0l-6.62-8H40.47V12.84h2v-8h0l6.62,8h1.74V1.37Zm4.29,11.47H55.2l1.37-3.09H62l1.39,3.09h2.16L60.26,1.37H58.47L53.14,12.84Zm6.12-9.12h.1l2,4.45H57.27l2-4.45ZM75,12.84a3.9,3.9,0,0,0,3-1A3.28,3.28,0,0,0,79,9.42a2.79,2.79,0,0,0-2.09-2.9,2.55,2.55,0,0,0,1.46-2.34,2.52,2.52,0,0,0-.77-1.81,3.8,3.8,0,0,0-2.76-1H67.91V12.84Zm.07-5.15a2,2,0,0,1,1.44.62A1.59,1.59,0,0,1,77,9.4a1.69,1.69,0,0,1-.48,1.16,2,2,0,0,1-1.42.52H69.88V7.69Zm-.42-4.56a1.73,1.73,0,0,1,1.28.43,1.39,1.39,0,0,1,.4,1,1.63,1.63,0,0,1-.47,1.14,1.62,1.62,0,0,1-1.21.42H69.88v-3ZM90.16,1.37v7.4c0,1.72-1.37,2.67-3.13,2.67s-3.11-.95-3.11-2.67V1.37H82v7.4c0,2.82,2.18,4.42,5.08,4.42s5.1-1.6,5.1-4.42V1.37Zm16.21,1.72A8.46,8.46,0,0,0,101,1,6.12,6.12,0,0,0,94.77,7.1a6.13,6.13,0,0,0,6.34,6.09,9.48,9.48,0,0,0,5.29-1.72v-5H101V8.2h3.6v2.3a6.19,6.19,0,0,1-3.37.94,4.19,4.19,0,0,1-4.41-4.33A4.2,4.2,0,0,1,101,2.77a6,6,0,0,1,4,1.55l1.37-1.23Zm2.15-1.72,3.67,11.47h2l2.51-7.68h.11l2.51,7.68h2l3.67-11.47h-2.06L120.31,9.8h-.11l-2.72-8.43h-1.41L113.35,9.8h-.1l-2.57-8.43Zm26.94,0v7.4c0,1.72-1.37,2.67-3.13,2.67s-3.11-.95-3.11-2.67V1.37h-2v7.4c0,2.82,2.17,4.42,5.07,4.42s5.1-1.6,5.1-4.42V1.37Z"/><path class="cls-5" d="M47,19.33v5.06h3.87v-.6h-3.2V19.33Zm9.83,5.06.68-1.52h2.53l.69,1.52h.74l-2.35-5.06h-.64l-2.35,5.06Zm1.92-4.27h.05l1,2.21H57.79l1-2.21Zm7.86-.79,1.63,5.06H69l1.22-3.8h0l1.22,3.8h.69l1.63-5.06h-.7l-1.25,4h0l-1.29-4H70l-1.3,4h0l-1.25-4Zm17.14,5.06V22.07h2v-.6h-2V19.92h3.33v-.59h-4v5.06Zm9.94,0V19.33h-.67v5.06Zm7.4,0V22.33h2.06l1.17,2.06h.76l-1.24-2.15a1.46,1.46,0,0,0,1.17-1.41,1.43,1.43,0,0,0-.38-1,1.82,1.82,0,0,0-1.42-.51h-2.79v5.06Zm2.12-4.47a1.17,1.17,0,0,1,.9.31.92.92,0,0,1,.24.59.93.93,0,0,1-1,.91h-2.29V19.92Zm13.37,4.47V19.33h-.69L114,22.51h0l-1.89-3.18h-.72v5.06h.65V20.55h0l1.83,3.08h.14l1.83-3.08h0v3.84Z"/></g></g></svg>